General
      Complete name : Curse.of.the.Golden.Flower.2006.BRRip.H264.AAC.5.1ch.Gopo.mp4
      Format : MPEG-4
      Format profile : Base Media
      Codec ID : isom
      File size : 1.80 GiB
      Duration : 1h 53mn
      Overall bit rate : 2 268 Kbps
      Encoded date : UTC 2009-11-30 17:18:20
      Tagged date : UTC 2009-11-30 17:18:20
   Video #1
      ID : 1
      Format : AVC
      Format/Info : Advanced Video Codec
      Format profile : High@L4.1
      Format settings, CABAC : Yes
      Format settings, ReFrames : 4 frames
      Codec ID : avc1
      Codec ID/Info : Advanced Video Coding
      Duration : 1h 53mn
      Bit rate mode : Variable
      Bit rate : 1 900 Kbps
      Maximum bit rate : 6 407 Kbps
      Width : 1 280 pixels
      Height : 544 pixels
      Display aspect ratio : 2.35:1
      Frame rate mode : Constant
      Frame rate : 23.976 fps
      Resolution : 24 bits
      Colorimetry : 4:2:0
      Scan type : Progressive
      Bits/(Pixel*Frame) : 0.114
      Stream size : 1.51 GiB (84%)
      Writing library : x264 core 68 r1183M f21daff
      Encoding settings : cabac=1 / ref=4 / deblock=1:-1:-1 / analyse=0x3:0x113 / me=umh / subme=8 / psy_rd=1.0:0.0 / mixed_ref=1 / me_range=16 / chroma_me=1 / trellis=2 / 8x8dct=1 / cqm=0 / deadzone=21,11 / chroma_qp_offset=-2 / threads=3 / nr=0 / decimate=1 / mbaff=0 / bframes=3 / b_pyramid=0 / b_adapt=2 / b_bias=0 / direct=3 / wpredb=1 / keyint=250 / keyint_min=25 / scenecut=40 / rc=2pass / bitrate=1900 / ratetol=1.0 / qcomp=0.60 / qpmin=10 / qpmax=51 / qpstep=4 / cplxblur=20.0 / qblur=0.5 / vbv_maxrate=50000 / vbv_bufsize=50000 / ip_ratio=1.40 / pb_ratio=1.30 / aq=1:1.00
      Encoded date : UTC 2009-11-30 02:40:20
      Tagged date : UTC 2009-11-30 17:22:01
   Audio #2
      ID : 2
      Format : AAC
      Format/Info : Advanced Audio Codec
      Format version : Version 4
      Format profile : LC
      Format settings, SBR : No
      Codec ID : 40
      Duration : 1h 53mn
      Bit rate mode : Variable
      Bit rate : 364 Kbps
      Maximum bit rate : 418 Kbps
      Channel(s) : 6 channels
      Channel positions : Front: L C R, Rear: L R, LFE
      Sampling rate : 48.0 KHz
      Resolution : 16 bits
      Stream size : 297 MiB (16%)
      Encoded date : UTC 2009-11-30 17:21:23
      Tagged date : UTC 2009-11-30 17:22:01	
	Sample : YES	
	Subtitle : English,Romanian

PLOT

During China's Tang dynasty the emperor has taken the princess of a neighboring province as wife. She has borne him two sons and raised his eldest. Now his control over his dominion is complete, including the royal family itself.Director: Yimou Zhang
CASTING
      
      Yun-Fat Chow	... 	Emperor Ping
	Li Gong	... 	Empress Phoenix
	Jay Chou	... 	Prince Jai
	Ye Liu	... 	Crown Prince Wan
	Dahong Ni	... 	Imperial Physician Jiang
	Junjie Qin	... 	Prince Yu
	Man Li	... 	Jiang Chan
	Jin Chen	... 	Mrs. Jiang

SOURCE: Curse.of.the.Golden.Flower.2006.720p.BluRay.DTS.x264-ESiR.mkv

Notes: For best performance I suggest you to use KMPlayer(find it with google) for playback
I haven't tested the movies on a PS3 or Xbox or other devices than PC because I don't own one of them but feel free to test them if you have the oportunity.
